<svg xmlns="http://www.w3.org/2000/svg" xmlns:xlink="http://www.w3.org/1999/xlink" viewBox="0 0 283.19 199.3"><defs><style>.cls-1,.cls-11,.cls-12,.cls-16,.cls-17,.cls-18,.cls-21,.cls-22{fill:none;}.cls-2{isolation:isolate;}.cls-20,.cls-3{fill:#eaa792;}.cls-4{fill:#181357;mix-blend-mode:soft-light;}.cls-5{fill:#008b86;}.cls-6{fill:#fe5c3d;}.cls-7{clip-path:url(#clip-path);}.cls-8,.cls-9{fill:#1d7f71;}.cls-10,.cls-12,.cls-13,.cls-19,.cls-20,.cls-21,.cls-22,.cls-9{stroke:#000;}.cls-10,.cls-11,.cls-13,.cls-16,.cls-17,.cls-18,.cls-19,.cls-20,.cls-21,.cls-22,.cls-9{stroke-miterlimit:10;}.cls-11,.cls-13,.cls-16,.cls-17,.cls-18,.cls-19,.cls-20,.cls-9{stroke-width:0.33px;}.cls-10,.cls-13{fill:#fff;}.cls-10{stroke-width:0.32px;}.cls-11{stroke:#fff;}.cls-12,.cls-22{stroke-linecap:round;}.cls-12{stroke-linejoin:round;stroke-width:0.66px;}.cls-14{clip-path:url(#clip-path-2);}.cls-15{clip-path:url(#clip-path-3);}.cls-16,.cls-17,.cls-18{stroke:#ed9501;}.cls-17{stroke-dasharray:2.02 2.02;}.cls-18{stroke-dasharray:2.02 2.02;}.cls-19{fill:#c14917;}.cls-21,.cls-22{stroke-width:0.37px;}.cls-23{clip-path:url(#clip-path-4);}</style><clipPath id="clip-path" transform="translate(-6.39 -1.52)"><path class="cls-1" d="M230.72,192.36l1.45-17.12s.14-3.38,1.91-3.6,3.24,3.51,3.24,3.51.1.93,1.92.53,18.17-4.27,18.17-4.27a42.8,42.8,0,0,0,17.69,5.44c10.89,1,11.85,4.59,11.85,4.59l-.9,4.87Z"/></clipPath><clipPath id="clip-path-2" transform="translate(-6.39 -1.52)"><path class="cls-1" d="M32.64,133.4l13.88,10.11s2.82,1.87,2.09,3.5-4.68,1-4.68,1-.84-.39-1.45,1.36-5.77,17.76-5.77,17.76a42.92,42.92,0,0,0-13.83,12.3c-6.51,8.79-10.07,7.76-10.07,7.76l-3.69-3.3Z"/></clipPath><clipPath id="clip-path-3" transform="translate(-6.39 -1.52)"><path class="cls-1" d="M246.31,90.09c-2.59-6.75-5.09-12.88-12.48-15.38A32.42,32.42,0,0,0,221,73.59c-10.31.76-20.27,2.68-30.49,4.16a224.65,224.65,0,0,0-26.1,4.94l-.45-2.6s-39.85,20-40.09,20.41l1.41,5.7-12.92,42s-1.18,9.74-14.23,5.54-33.71-15.31-33.71-15.31l-19.8,35.81c20.72,11.56,44,21.34,67.34,25.57,7.11,1.28,13.65,2.32,19.62-2.7a32.37,32.37,0,0,0,7.59-10.35c4.69-9.21,8.22-18.73,12.25-28.23,4.39-10.35,8.75-21,11.15-32.07l39.37-9.9s8.94-4.05,12.11,9.29,4.39,36.76,4.39,36.76l40.89-1.63C258.5,137.22,254.82,112.28,246.31,90.09Z"/></clipPath><clipPath id="clip-path-4" transform="translate(-6.39 -1.52)"><path class="cls-1" d="M112.77,74.26,119.1,91S128.55,80.76,143,78.06a46.85,46.85,0,0,0,5.82-1.49c3.92-1.25,9.73-3.3,12.26-5.14l-6.39-13.34s2.66-6.86.75-9.1S139,34.54,139,34.54l-2.29.76c.47-.16,2,7,2.05,7.46.54,5.24-2.05,9.22-7.41,9.09-4.28-.1-8.54-2.92-10.79-6.22A38.8,38.8,0,0,1,118,41.28L114.25,43S124.32,64.34,112.77,74.26Z"/></clipPath></defs><title>Vector Smart Object</title><g class="cls-2"><g id="OBJECTS"><polygon class="cls-3" points="110.03 75.19 120.11 100.8 155.33 84.45 147.37 60.06 110.03 75.19"/><polygon class="cls-4" points="151.21 71.8 116.39 91.35 114.06 85.44 139.14 72.31 151.21 71.8"/><path d="M123.91,100.5c.24-.4,40.09-20.41,40.09-20.41l.84,4.91-39.52,21.2Z" transform="translate(-6.39 -1.52)"/><polygon class="cls-3" points="228.81 177.04 223.81 155.17 250.09 155.01 249.81 172.54 228.81 177.04"/><path class="cls-5" d="M251.09,172.91a4.39,4.39,0,0,1-.26-.82,3.46,3.46,0,0,1,0-1.72,2.13,2.13,0,0,1,1.34-1.37,12.47,12.47,0,0,0,2.34-1.44c.84-.67,1.52-1.47,2.29-2.22.43-.43.57.06.57.47,0,1,0,2,0,3a18.52,18.52,0,0,1,0,2.56Z" transform="translate(-6.39 -1.52)"/><path class="cls-6" d="M230.72,192.36l1.45-17.12s.14-3.38,1.91-3.6,3.24,3.51,3.24,3.51.1.93,1.92.53,18.17-4.27,18.17-4.27a42.8,42.8,0,0,0,17.69,5.44c10.89,1,11.85,4.59,11.85,4.59l-.9,4.87Z" transform="translate(-6.39 -1.52)"/><g class="cls-7"><path class="cls-8" d="M231.49,175.44s1.88-1.39,2.76.38.18,2.6,3.1,2.15a1.22,1.22,0,0,1,1.33.89,3.72,3.72,0,0,1,.18.95,1.91,1.91,0,0,1,0,.63c-.19.73-1.15.82-1.78.89a20.48,20.48,0,0,0-3.2.59q-.79.21-1.59.48a10.57,10.57,0,0,1-1.59.6,5.38,5.38,0,0,1,.11-1.19c.08-.67.15-1.35.23-2l.43-3.87Z" transform="translate(-6.39 -1.52)"/><path class="cls-9" d="M230.22,186.75c.27-.16,8.29-1.18,8.29-1.18a2.67,2.67,0,0,1,2.69,1.83,39.94,39.94,0,0,1,1.55,4.33l-12.9,1.5Z" transform="translate(-6.39 -1.52)"/><path class="cls-8" d="M260.6,189.84s-1.41-5.72,4.1-7.18,5.69-4.53,8.58-6.83c.29-.23,11.37,1.74,11.6,1.73s4.61,2.28,4.69,2.81-.46,5.42-.46,5.42l-8,2.51Z" transform="translate(-6.39 -1.52)"/><path class="cls-10" d="M256.2,170.54s-3.78,4.33-.94,5.88,7.37,3.5,10.39,3.65,4.3-5.18,4.3-5.18Z" transform="translate(-6.39 -1.52)"/><path d="M259.38,171h0a.79.79,0,0,0-1.09.17l-2.09,2.9a.79.79,0,0,0,.18,1.09h0a.78.78,0,0,0,1.09-.18l2.08-2.89A.78.78,0,0,0,259.38,171Z" transform="translate(-6.39 -1.52)"/><path d="M262.5,171.56h0a.78.78,0,0,0-1.09.18l-2.45,3.4a.79.79,0,0,0,.17,1.09h0a.79.79,0,0,0,1.09-.17l2.46-3.41A.78.78,0,0,0,262.5,171.56Z" transform="translate(-6.39 -1.52)"/><path d="M265.18,172.77h0a.79.79,0,0,0-1.09.17l-2.46,3.41a.78.78,0,0,0,.18,1.09h0a.78.78,0,0,0,1.09-.18l2.45-3.4A.77.77,0,0,0,265.18,172.77Z" transform="translate(-6.39 -1.52)"/><path d="M268.13,173.59h0a.78.78,0,0,0-1.09.18l-2.45,3.4a.77.77,0,0,0,.17,1.09h0a.78.78,0,0,0,1.09-.18l2.46-3.4A.78.78,0,0,0,268.13,173.59Z" transform="translate(-6.39 -1.52)"/><path d="M248.92,186.65a1.11,1.11,0,0,1-.11-.69c.19-.64,1-.16,1.33.09a34.45,34.45,0,0,1,4,3.68l4.38-.48-11.7-7.33a3.74,3.74,0,0,0-2.79-.48l-14.25,3.16.11,1.19,12-2a3.61,3.61,0,0,1,3.61,1.59l3.2,4.91,2.31-.25A14.42,14.42,0,0,1,248.92,186.65Z" transform="translate(-6.39 -1.52)"/></g><path class="cls-11" d="M263,190.5s-1.4-5.72,4.11-7.18,6.13-3.91,8-7" transform="translate(-6.39 -1.52)"/><line class="cls-12" x1="225.46" y1="177.42" x2="225.78" y2="172.7"/><path class="cls-12" d="M232.17,174.42a3,3,0,0,0-1.87-2.12c-.92-.35-2.74-.37-2.74,1a1.6,1.6,0,0,0,.7,1.25c1,.72,3.61-.19,3.73,1.63" transform="translate(-6.39 -1.52)"/><path class="cls-13" d="M284.78,186.37l-55.66,6.09-1.44,5.17a1.58,1.58,0,0,0,1.8,2L285,189.92a2.45,2.45,0,0,0,1.16-1.58c.3-1.46.72-3.08,1.07-4.69a3.38,3.38,0,0,0-.61-2.75c-.3-.43-1.12-.09-1.73.26a1.14,1.14,0,0,0,.52,2.18.3.3,0,0,1,.11.07C286.53,184.21,286.08,186.23,284.78,186.37Z" transform="translate(-6.39 -1.52)"/><path d="M159.41,127.21,202,116.51s8.94-4.05,12.11,9.29,4.39,36.76,4.39,36.76l40.89-1.63c-.87-23.71-4.55-48.65-13.06-70.84-2.59-6.75-5.09-12.88-12.48-15.38A32.42,32.42,0,0,0,221,73.59c-10.31.76-20.27,2.68-30.49,4.16-11.83,1.71-24,3.66-35.23,7.82l-22.12,27Z" transform="translate(-6.39 -1.52)"/><polygon class="cls-3" points="35.72 142.85 57.02 149.93 43.53 172.47 28.68 163.15 35.72 142.85"/><path class="cls-5" d="M38.71,160.9a4.23,4.23,0,0,1,.84.2A3.57,3.57,0,0,1,41,162a2.16,2.16,0,0,1,.47,1.86,12,12,0,0,0,0,2.75,27.42,27.42,0,0,0,.7,3.11c.14.59-.34.45-.7.25-.87-.52-1.74-1-2.62-1.55a17.3,17.3,0,0,1-2.2-1.3Z" transform="translate(-6.39 -1.52)"/><path class="cls-6" d="M32.64,133.4l13.88,10.11s2.82,1.87,2.09,3.5-4.68,1-4.68,1-.84-.39-1.45,1.36-5.77,17.76-5.77,17.76a42.92,42.92,0,0,0-13.83,12.3c-6.51,8.79-10.07,7.76-10.07,7.76l-3.69-3.3Z" transform="translate(-6.39 -1.52)"/><g class="cls-14"><path class="cls-8" d="M46.71,142.83s.21,2.32-1.76,2.16-2.32-1.2-3.45,1.53a1.2,1.2,0,0,1-1.45.68,3.4,3.4,0,0,1-.9-.34,2.06,2.06,0,0,1-.52-.35c-.53-.55-.1-1.42.16-2a21.88,21.88,0,0,0,1.16-3c.15-.53.29-1.07.41-1.61a10.06,10.06,0,0,1,.31-1.67,4.67,4.67,0,0,1,1,.71l1.61,1.24,3.08,2.38Z" transform="translate(-6.39 -1.52)"/><path class="cls-9" d="M37.69,135.88c0,.31-3.28,7.7-3.28,7.7a2.69,2.69,0,0,1-3,1.35,40.72,40.72,0,0,1-4.5-.92l5.41-11.81Z" transform="translate(-6.39 -1.52)"/><path class="cls-8" d="M19.3,160.25s5.62,1.76,4,7.23.92,7.21,1.39,10.87c0,.37-7.38,8.83-7.49,9s-4.35,2.76-4.84,2.55S8,186.73,8,186.73l2-8.13Z" transform="translate(-6.39 -1.52)"/><path class="cls-10" d="M38.08,166.5s-1.75-5.48-4.54-3.86-6.82,4.49-8.51,7,2.2,6.36,2.2,6.36Z" transform="translate(-6.39 -1.52)"/><path d="M36,169h0a.78.78,0,0,0,.42-1l-1.4-3.28a.78.78,0,0,0-1-.42h0a.79.79,0,0,0-.41,1L35,168.56A.77.77,0,0,0,36,169Z" transform="translate(-6.39 -1.52)"/><path d="M33.94,171.35h0a.78.78,0,0,0,.41-1l-1.63-3.86a.79.79,0,0,0-1-.42h0a.79.79,0,0,0-.41,1l1.64,3.86A.77.77,0,0,0,33.94,171.35Z" transform="translate(-6.39 -1.52)"/><path d="M31.52,173h0a.78.78,0,0,0,.41-1l-1.63-3.86a.78.78,0,0,0-1-.41h0a.78.78,0,0,0-.41,1l1.64,3.86A.79.79,0,0,0,31.52,173Z" transform="translate(-6.39 -1.52)"/><path d="M29.29,175.11h0a.78.78,0,0,0,.41-1l-1.64-3.86a.78.78,0,0,0-1-.42h0a.78.78,0,0,0-.41,1l1.63,3.86A.78.78,0,0,0,29.29,175.11Z" transform="translate(-6.39 -1.52)"/><path d="M28.08,151.91a1.12,1.12,0,0,1,.65.27c.45.49-.39.95-.77,1.09a34.65,34.65,0,0,1-5.2,1.48l-1.86,4,12.34-6.2a3.72,3.72,0,0,0,1.85-2.14l4.69-13.82-1.08-.52-4.55,11.31a3.62,3.62,0,0,1-3.23,2.26l-5.86.19-1,2.11A14.49,14.49,0,0,1,28.08,151.91Z" transform="translate(-6.39 -1.52)"/></g><path class="cls-11" d="M17.5,161.93s5.62,1.77,4,7.24.17,7.27,1.82,10.47" transform="translate(-6.39 -1.52)"/><line class="cls-12" x1="37.13" y1="139.8" x2="41" y2="142.52"/><path class="cls-12" d="M47.23,143.94a2.94,2.94,0,0,0,2.78-.51c.77-.6,1.74-2.14.55-2.86a1.57,1.57,0,0,0-1.43,0c-1.15.51-1.71,3.19-3.33,2.35" transform="translate(-6.39 -1.52)"/><path class="cls-13" d="M9.72,182.72,33.38,132l-3.67-3.91a1.59,1.59,0,0,0-2.63.51L6.56,181.11a2.41,2.41,0,0,0,.74,1.81c1.1,1,2.26,2.21,3.46,3.34a3.35,3.35,0,0,0,2.67.9c.52,0,.65-.9.68-1.61a1.15,1.15,0,0,0-2.14-.69s-.06,0-.12.06C10.67,185.34,9.17,183.91,9.72,182.72Z" transform="translate(-6.39 -1.52)"/><path d="M125.32,106.2l-12.92,42s-1.18,9.74-14.23,5.54-33.71-15.31-33.71-15.31l-19.8,35.81c20.72,11.56,44,21.34,67.34,25.57,7.11,1.28,13.65,2.32,19.62-2.7a32.37,32.37,0,0,0,7.59-10.35c4.69-9.21,8.22-18.73,12.25-28.23,4.67-11,9.31-22.39,11.58-34.18l-11.6-32.91Z" transform="translate(-6.39 -1.52)"/><polygon class="cls-4" points="249.99 159.69 225.96 164.56 225.04 160.52 249.99 159.69"/><polygon class="cls-4" points="39.62 170.02 47.12 146.64 51.8 148.2 39.62 170.02"/><g class="cls-15"><line class="cls-16" x1="158.1" y1="81.4" x2="118.93" y2="104.68"/><line class="cls-16" x1="70.55" y1="137.35" x2="47.76" y2="191.55"/><line class="cls-16" x1="208.72" y1="150.5" x2="256.06" y2="143.4"/><path class="cls-16" d="M134.73,101.71c-.41-3.4,4.75,17.21-8,16.56" transform="translate(-6.39 -1.52)"/><line class="cls-16" x1="156.43" y1="124.83" x2="144.86" y2="89.31"/><path class="cls-16" d="M67.9,160.35l.95.31" transform="translate(-6.39 -1.52)"/><path class="cls-17" d="M70.77,161.28c10.47,3.36,21,6.69,31.39,10.13,3,1,6.59,2.05,9.75.9,5.27-1.92,6.44-8.25,8.24-12.84,4.32-11,8-27.7,10.14-39.84" transform="translate(-6.39 -1.52)"/><path class="cls-16" d="M130.46,118.63c.06-.33.12-.65.17-1" transform="translate(-6.39 -1.52)"/><path class="cls-16" d="M155.11,88.57c.15.3,4.65,14.91,5.57,17.91a2.67,2.67,0,0,1,.1,1.09h0a2.72,2.72,0,0,1-1.4,2.09l-1.7.92" transform="translate(-6.39 -1.52)"/><path class="cls-16" d="M159.92,115.45l1-.3" transform="translate(-6.39 -1.52)"/><path class="cls-18" d="M162.8,114.55l34.68-10.83c5.11-1.59,10.12-4.21,15.54-4.58,7.2-.49,10.18,5.77,11.79,11.85a194.6,194.6,0,0,1,6,36.6" transform="translate(-6.39 -1.52)"/><path class="cls-16" d="M230.92,148.6l.06,1" transform="translate(-6.39 -1.52)"/></g><path class="cls-3" d="M110.59,45.1s13.6,3.84,13.24,13.22c-.17,4.49-8.37,14.52-13.71,18,0,0-41.8,24.49-58.89.39A27.28,27.28,0,0,1,46.75,66c-1.07-5.69-2.81-17.06-1.41-24.82l24.28-1.5S64.54,67,88.77,57.9a25.71,25.71,0,0,0,4.47-2.19Z" transform="translate(-6.39 -1.52)"/><path class="cls-3" d="M51.17,34.85q.38-6.23,1-12.43c.31-2.94.67-5.87,1.16-8.79.42-2.5.76-5.76,2.17-7.93,1.07-1.64,2.54-1.56,3.2.08,1,2.55.76,5.81.63,8.48,0,.65-.07,1.29-.11,1.94" transform="translate(-6.39 -1.52)"/><path class="cls-3" d="M56.36,31.86q.35-5.87,1-11.72c.33-3.15.7-6.3,1.22-9.42.42-2.47.78-5.31,1.9-7.58.73-1.48,2.42-2.38,3.31-.75,1.14,2.09.91,5.14.86,7.41,0,1.13-.09,2.27-.17,3.4" transform="translate(-6.39 -1.52)"/><path class="cls-3" d="M62.8,17a4.89,4.89,0,0,0,.42-1.65c.28-1.61.73-3.55,1-5.16a12,12,0,0,1,1.26-3.87c.5-1,1.51-3.09,2.87-2s1.19,4.08,1.2,5.58c0,2.09-.26,4.16-.27,6.24l0,7.38s6-7,6.25-3.56c.17,2.5-1.51,6.54-2.69,9a34.48,34.48,0,0,0-2.41,7c-.24,1-.49,2.26-.77,3.69l-24.28,1.5c.25-4.39.63-8.77,1.11-13.13.29-2.67.62-5.34,1.07-8,.41-2.45.75-5.43,1.94-7.63.81-1.49,2.43-2.35,3.3-.65,1.12,2.18.88,5.26.82,7.6,0,1-.09,2.09-.16,3.14,0-.16,1.23-.71,1.37-.79l3.13-1.82L61.16,18a6.71,6.71,0,0,0,1.43-.75A.75.75,0,0,0,62.8,17Z" transform="translate(-6.39 -1.52)"/><line class="cls-19" x1="46.97" y1="12.11" x2="46.56" y2="19.61"/><line class="cls-19" x1="52.78" y1="5.69" x2="52.09" y2="18.04"/><line class="cls-19" x1="58.3" y1="6.29" x2="57.14" y2="16.96"/><path class="cls-20" d="M68,24.08s-7.69,1-8.82,8.09" transform="translate(-6.39 -1.52)"/><path class="cls-3" d="M143.14,64S132.69,47,135.74,38.14c1.52-4.42,2-2.29,7.87-5.38,0,0,41.8-24.5,58.89-.4A27.13,27.13,0,0,1,207,43.09c1.07,5.69,2.81,17.07,1.41,24.83l-24.28,1.49S189.19,42,165,51.16a26.82,26.82,0,0,0-4.47,2.19Z" transform="translate(-6.39 -1.52)"/><path class="cls-3" d="M202.56,74.21q-.36,6.23-1,12.43c-.31,2.94-.67,5.88-1.16,8.79-.42,2.5-.76,5.77-2.17,7.93-1.07,1.65-2.54,1.56-3.2-.07-1-2.56-.76-5.82-.63-8.49,0-.64.07-1.29.11-1.93" transform="translate(-6.39 -1.52)"/><path class="cls-3" d="M197.37,77.21c-.22,3.91-.55,7.82-1,11.72-.33,3.15-.7,6.29-1.22,9.41-.42,2.48-.78,5.31-1.9,7.59-.72,1.47-2.42,2.37-3.31.74-1.14-2.09-.91-5.13-.86-7.41,0-1.13.09-2.27.17-3.4" transform="translate(-6.39 -1.52)"/><path class="cls-3" d="M190.93,92.06a4.89,4.89,0,0,0-.42,1.66c-.27,1.6-.72,3.55-1,5.15a12,12,0,0,1-1.26,3.87c-.5,1-1.51,3.09-2.87,2s-1.19-4.08-1.2-5.58c0-2.08.27-4.16.27-6.24l0-7.38s-6,7-6.25,3.56c-.17-2.49,1.51-6.53,2.69-9a34,34,0,0,0,2.41-7c.24-1,.5-2.26.77-3.7l24.28-1.49c-.25,4.38-.63,8.76-1.11,13.13-.29,2.66-.62,5.33-1.06,8-.41,2.45-.76,5.43-1.95,7.63-.81,1.5-2.43,2.35-3.3.65-1.12-2.17-.88-5.25-.82-7.6,0-1,.09-2.09.16-3.14,0,.17-1.23.71-1.37.8l-3.13,1.81-3.24,1.88a6.68,6.68,0,0,0-1.43.74A1.26,1.26,0,0,0,190.93,92.06Z" transform="translate(-6.39 -1.52)"/><line class="cls-19" x1="193.98" y1="93.91" x2="194.4" y2="86.41"/><line class="cls-19" x1="188.18" y1="100.33" x2="188.86" y2="87.98"/><line class="cls-19" x1="182.65" y1="99.73" x2="183.81" y2="89.06"/><path class="cls-6" d="M117.82,38a16.47,16.47,0,0,0,3.94-.87L117.65,18.6l-2.32-5.76S111,15.27,110.15,23c-.63,5.9-6.8,9.27-6.8,9.27a17.92,17.92,0,0,0,1.75,1.82c1.31-.6,4.06-2.13,5.17-4.81,0,0-.85,4.44-3.08,6.4a15.11,15.11,0,0,0,5.58,2.18c.45-.85,1.41-2.87,1.41-2.87l0,3.06a18.23,18.23,0,0,0,2.84.05c.15-.94.3-1.93.3-1.93Z" transform="translate(-6.39 -1.52)"/><path class="cls-6" d="M101.92,29.71l0-.37a10,10,0,0,0,8.61-8.49l.37.07A10.39,10.39,0,0,1,101.92,29.71Z" transform="translate(-6.39 -1.52)"/><path class="cls-3" d="M134.37,54.74c10.3-6.43,4.95-19.23,4.64-20.2a62,62,0,0,1-7.33,2.18l-2.35-7.14-4.8,1.57L118,28.54l3.9,10.93s-5.26,2.34-11.91,5.87C111.08,54.14,126.83,59.45,134.37,54.74Z" transform="translate(-6.39 -1.52)"/><path class="cls-4" d="M130,31.62a7.19,7.19,0,0,1-4.85,2.94c-1.89.23-3.25-1.56-4.82-2.79,0,0,2.23,7.52,11.35,4.95Z" transform="translate(-6.39 -1.52)"/><path class="cls-3" d="M117.38,27.17c2.65,6.44,6.37,9,10.92,8s6.53-4,3.43-16.57c-1.47-6-4.83-6.23-9.38-5.27S115,21.49,117.38,27.17Z" transform="translate(-6.39 -1.52)"/><path class="cls-3" d="M115.09,27.25c.63,1.37,1.91,2.12,2.85,1.68s1.2-1.9.56-3.26-1.91-2.12-2.85-1.68S114.45,25.89,115.09,27.25Z" transform="translate(-6.39 -1.52)"/><path class="cls-21" d="M127.07,27.48s1,.19,1.3-.57-1.15-2.09-1.15-2.09" transform="translate(-6.39 -1.52)"/><path d="M127.09,29.52a8.94,8.94,0,0,1-3.48-.69S124.22,34.55,127.09,29.52Z" transform="translate(-6.39 -1.52)"/><path class="cls-22" d="M122.16,24a2,2,0,0,1,2.86-.37" transform="translate(-6.39 -1.52)"/><path class="cls-22" d="M128.22,23.05a2,2,0,0,1,2.82-.58" transform="translate(-6.39 -1.52)"/><path class="cls-21" d="M117.86,27.54s-.13-2.66-1.83-2.25" transform="translate(-6.39 -1.52)"/><path d="M123,21.87l-1.07.47a.3.3,0,0,1-.4-.15h0a.31.31,0,0,1,.16-.4l1.07-.48a.32.32,0,0,1,.4.16h0A.3.3,0,0,1,123,21.87Z" transform="translate(-6.39 -1.52)"/><path d="M130.3,19.94l-1.16-.13a.31.31,0,0,0-.34.27h0a.32.32,0,0,0,.27.34l1.17.12a.3.3,0,0,0,.33-.27h0A.3.3,0,0,0,130.3,19.94Z" transform="translate(-6.39 -1.52)"/><path class="cls-6" d="M116.08,23.84s.59.07.73.1a4.38,4.38,0,0,1,2.34,2.67L118.68,20l-2.93.5-.08,3.42" transform="translate(-6.39 -1.52)"/><path class="cls-6" d="M128.5,15.47a5.29,5.29,0,0,1,1.8,2.46h0L133,17s-2.18-6.16-8-6.79a14,14,0,0,0-9.73,2.59l.18,9.92,6.35-2.07c-.08-1-.19-2.13-.19-2.13l1.08,1.84,6.46-2.12A8.54,8.54,0,0,0,128.5,15.47Z" transform="translate(-6.39 -1.52)"/><path class="cls-6" d="M133.81,16.77c-2.23-4.39-5.73-6.42-10.69-6.22v-.38c5.12-.2,8.72,1.9,11,6.43Z" transform="translate(-6.39 -1.52)"/><path class="cls-13" d="M112.77,74.26,119.1,91S128.55,80.76,143,78.06a46.85,46.85,0,0,0,5.82-1.49c3.92-1.25,9.73-3.3,12.26-5.14l-6.39-13.34s2.66-6.86.75-9.1S139,34.54,139,34.54l-2.29.76c.47-.16,2,7,2.05,7.46.54,5.24-2.05,9.22-7.41,9.09-4.28-.1-8.54-2.92-10.79-6.22A38.8,38.8,0,0,1,118,41.28L114.25,43S124.32,64.34,112.77,74.26Z" transform="translate(-6.39 -1.52)"/><g class="cls-23"><path class="cls-6" d="M118.19,69.1A5.75,5.75,0,1,1,124.52,64,5.76,5.76,0,0,1,118.19,69.1ZM119.4,58a5.41,5.41,0,1,0,4.79,6A5.41,5.41,0,0,0,119.4,58Z" transform="translate(-6.39 -1.52)"/><path class="cls-5" d="M139.71,73.86A5.74,5.74,0,1,1,146,68.77,5.75,5.75,0,0,1,139.71,73.86Zm1.21-11.09a5.41,5.41,0,1,0,4.79,6A5.42,5.42,0,0,0,140.92,62.77Z" transform="translate(-6.39 -1.52)"/><path class="cls-6" d="M152.46,70a3,3,0,1,1,3.26-2.62A3,3,0,0,1,152.46,70Zm.61-5.54a2.62,2.62,0,1,0,2.32,2.89A2.63,2.63,0,0,0,153.07,64.48Z" transform="translate(-6.39 -1.52)"/><path class="cls-6" d="M132.79,85.09A3,3,0,1,1,136,82.48,2.95,2.95,0,0,1,132.79,85.09Zm.6-5.54a2.62,2.62,0,1,0,2.32,2.89A2.61,2.61,0,0,0,133.39,79.55Z" transform="translate(-6.39 -1.52)"/><path class="cls-8" d="M121.31,77.38a2.38,2.38,0,1,1,2.62-2.11A2.37,2.37,0,0,1,121.31,77.38Zm.47-4.4a2,2,0,1,0,1.82,2.26A2,2,0,0,0,121.78,73Z" transform="translate(-6.39 -1.52)"/><path class="cls-8" d="M145.32,59.29a2.38,2.38,0,1,1,2.62-2.11A2.38,2.38,0,0,1,145.32,59.29Zm.48-4.4a2,2,0,1,0,1.81,2.26A2,2,0,0,0,145.8,54.89Z" transform="translate(-6.39 -1.52)"/><path class="cls-8" d="M130.2,61.38a3,3,0,1,1,3.26-2.61A3,3,0,0,1,130.2,61.38Zm.6-5.54a2.62,2.62,0,1,0,2.33,2.89A2.63,2.63,0,0,0,130.8,55.84Z" transform="translate(-6.39 -1.52)"/><path class="cls-5" d="M120.32,50.34a3,3,0,1,1,3.26-2.62A3,3,0,0,1,120.32,50.34Zm.61-5.55a2.62,2.62,0,1,0,2.32,2.89A2.64,2.64,0,0,0,120.93,44.79Z" transform="translate(-6.39 -1.52)"/><path class="cls-8" d="M136.64,41.52a3,3,0,1,1,3.26-2.62A3,3,0,0,1,136.64,41.52Zm.6-5.55a2.62,2.62,0,1,0,2.33,2.9A2.64,2.64,0,0,0,137.24,36Z" transform="translate(-6.39 -1.52)"/><path class="cls-8" d="M148.89,51.27a5.74,5.74,0,1,1,6.34-5.09A5.75,5.75,0,0,1,148.89,51.27Zm1.21-11.09a5.41,5.41,0,1,0,4.79,6A5.43,5.43,0,0,0,150.1,40.18Z" transform="translate(-6.39 -1.52)"/><path class="cls-8" d="M117.61,91.7a5.75,5.75,0,1,1,6.33-5.09A5.76,5.76,0,0,1,117.61,91.7Zm1.2-11.1a5.42,5.42,0,1,0,4.8,6A5.42,5.42,0,0,0,118.81,80.6Z" transform="translate(-6.39 -1.52)"/></g></g></g></svg>